<svg xmlns="http://www.w3.org/2000/svg" viewBox="0 0 128 128">
<defs><linearGradient id="g" x1="0" y1="0" x2="1" y2="1"><stop offset="0" stop-color="#2b170d"/><stop offset="1" stop-color="#241d20"/></linearGradient></defs>
<rect x="4" y="4" width="120" height="120" rx="28" fill="url(#g)" stroke="rgba(255,255,255,.16)"/>

<path d="M52 88c16 6 37 2 37-6 0-4-4-6-10-7 4 2 6 4 6 6 0 5-18 7-33 3z" fill="#fff"/>
<path d="M48 68c-8 8 6 11 15 11 17 0 30-5 30-12 0-4-4-7-10-9 4 3 6 5 6 8 0 5-14 8-26 8-10 0-19-2-15-6z" fill="#E76F00"/>
<path d="M60 31c9 10-9 15-1 23 6 6 10-1 7-6 10 12 2 23-8 17-10-6-3-15 2-21 4-5 3-8 2-13z" fill="#E76F00"/>

</svg>